HIERARCHY
ROOT Pelvis
{
	OFFSET 0.000000 0.000000 0.000000
	CHANNELS 6 Xposition Yposition Zposition Xrotation Yrotation Zrotation
	JOINT LeftUpLeg_virtual
	{
		OFFSET 0.000000 0.000000 0.000000
		CHANNELS 3 Xrotation Yrotation Zrotation
		JOINT LeftUpLeg
		{
			OFFSET 18.735201 -5.666702 -4.541200
			CHANNELS 3 Xrotation Yrotation Zrotation
			JOINT LeftLeg
			{
				OFFSET -0.021200 -31.938179 0.493100
				CHANNELS 3 Xrotation Yrotation Zrotation
				JOINT LeftFoot
				{
					OFFSET 0.021200 -31.938179 -4.336299
					CHANNELS 3 Xrotation Yrotation Zrotation
					JOINT LeftToeBase
					{
						OFFSET 0.943001 -26.722000 15.023500
						CHANNELS 3 Xrotation Yrotation Zrotation
						End Site
						{
							OFFSET 0 0 0
						}
					}
				}
			}
		}
	}
	JOINT RightUpLeg_virtual
	{
		OFFSET 0.000000 0.000000 0.000000
		CHANNELS 3 Xrotation Yrotation Zrotation
		JOINT RightUpLeg
		{
			OFFSET -18.735201 -5.666702 -4.541200
			CHANNELS 3 Xrotation Yrotation Zrotation
			JOINT RightLeg
			{
				OFFSET 0.018946 -31.938133 0.493100
				CHANNELS 3 Xrotation Yrotation Zrotation
				JOINT RightFoot
				{
					OFFSET -0.018946 -31.938126 -4.336299
					CHANNELS 3 Xrotation Yrotation Zrotation
					JOINT RightToeBase
					{
						OFFSET -0.943001 -26.722004 15.023500
						CHANNELS 3 Xrotation Yrotation Zrotation
						End Site
						{
							OFFSET 0 0 0
						}
					}
				}
			}
		}
	}
	JOINT Hips_virtual
	{
		OFFSET 0.000000 0.000000 0.000000
		CHANNELS 3 Xrotation Yrotation Zrotation
		JOINT Hips
		{
			OFFSET -0.000000 -0.000000 -0.000000
			CHANNELS 3 Xrotation Yrotation Zrotation
			JOINT Spine
			{
				OFFSET 0.000000 10.199997 -0.299500
				CHANNELS 3 Xrotation Yrotation Zrotation
				JOINT Spine1
				{
					OFFSET 0.000000 11.900002 -1.516600
					CHANNELS 3 Xrotation Yrotation Zrotation
					JOINT Spine2
					{
						OFFSET 0.000000 13.600006 -2.842500
						CHANNELS 3 Xrotation Yrotation Zrotation
						JOINT Neck_virtual
						{
							OFFSET 0.000000 0.000000 0.000000
							CHANNELS 3 Xrotation Yrotation Zrotation
							JOINT Neck
							{
								OFFSET 0.000000 9.624100 -2.890100
								CHANNELS 3 Xrotation Yrotation Zrotation
								JOINT Head
								{
									OFFSET 0.000000 14.068802 -1.351900
									CHANNELS 3 Xrotation Yrotation Zrotation
									End Site
									{
										OFFSET 0 0 0
									}
								}
							}
						}
						JOINT LeftShoulder_virtual
						{
							OFFSET 0.000000 0.000000 0.000000
							CHANNELS 3 Xrotation Yrotation Zrotation
							JOINT LeftShoulder
							{
								OFFSET 15.263000 10.923401 -0.547700
								CHANNELS 3 Xrotation Yrotation Zrotation
								JOINT LeftArm
								{
									OFFSET 25.438599 -2.830597 -13.032500
									CHANNELS 3 Xrotation Yrotation Zrotation
									JOINT LeftForeArm
									{
										OFFSET 29.960503 0.000000 0.000000
										CHANNELS 3 Xrotation Yrotation Zrotation
										JOINT LeftHand
										{
											OFFSET 27.849251 0.000000 0.000000
											CHANNELS 3 Xrotation Yrotation Zrotation
											End Site
											{
												OFFSET 0 0 0
											}
										}
									}
								}
							}
						}
						JOINT RightShoulder_virtual
						{
							OFFSET 0.000000 0.000000 0.000000
							CHANNELS 3 Xrotation Yrotation Zrotation
							JOINT RightShoulder
							{
								OFFSET -15.263000 10.923401 -0.547700
								CHANNELS 3 Xrotation Yrotation Zrotation
								JOINT RightArm
								{
									OFFSET -25.438599 -2.830597 -13.032500
									CHANNELS 3 Xrotation Yrotation Zrotation
									JOINT RightForeArm
									{
										OFFSET -29.960503 0.000000 0.000000
										CHANNELS 3 Xrotation Yrotation Zrotation
										JOINT RightHand
										{
											OFFSET -27.849251 0.000000 0.000000
											CHANNELS 3 Xrotation Yrotation Zrotation
											End Site
											{
												OFFSET 0 0 0
											}
										}
									}
								}
							}
						}
					}
				}
			}
		}
	}
}
MOTION
Frames: 4
Frame Time: 0.03333333
1.768630 38.381413 -18.683887 0.000000 0.000000 0.000000 15.015068 -35.610127 7.465385 -30.797808 2.671646 20.065018 124.727164 -3.872604 -8.234735 50.061236 -2.329706 -19.593475 0.000000 0.000000 0.000000 8.414062 27.897491 -5.173855 -24.214197 2.985685 -18.180150 113.982593 8.324963 -0.234076 35.483202 10.485933 22.431869 0.000000 0.000000 0.000000 18.481426 13.580171 -0.853743 28.273549 -5.717251 7.609198 26.416271 3.574337 -2.983604 15.867219 1.368229 -2.502386 0.000000 0.000000 0.000000 14.294285 1.468190 -1.049379 4.294937 -1.306757 0.973358 0.000000 0.000000 0.000000 16.924075 0.066781 -2.169899 3.217951 -27.924358 -3.667590 -44.971663 -35.868974 -49.708057 -31.036130 -86.642753 -27.698840 0.000000 0.000000 0.000000 15.553814 3.497556 -2.101956 4.971362 8.028250 -7.077193 -26.872976 31.373788 32.778549 -9.421717 61.676226 9.818741 0.000000 0.000000 0.000000 
1.584252 38.291229 -19.207191 0.000000 0.000000 0.000000 14.294829 -35.282995 7.139007 -31.478460 2.642181 20.001113 124.947137 -4.130349 -8.105492 50.188705 -2.716264 -19.746126 0.000000 0.000000 0.000000 7.937683 27.958666 -5.063513 -24.713808 3.095662 -18.113351 114.487433 8.241023 -0.287425 35.830824 10.481947 22.279502 0.000000 0.000000 0.000000 18.219209 13.255844 -0.812006 26.823502 -7.032354 7.277588 26.819055 3.269913 -3.335404 16.147824 1.182604 -2.739484 0.000000 0.000000 0.000000 14.757230 1.379470 -1.199283 4.441592 -1.313432 0.911882 0.000000 0.000000 0.000000 17.444925 0.117087 -2.451801 3.031154 -27.028448 -5.180068 -44.165127 -35.880910 -49.860323 -30.250730 -86.807080 -26.985201 0.000000 0.000000 0.000000 16.087894 3.359124 -2.228062 5.107152 7.395503 -7.544075 -26.396992 31.200728 33.272901 -9.851646 62.996385 10.438199 0.000000 0.000000 0.000000 
1.389270 38.273479 -19.625286 0.000000 0.000000 0.000000 13.683348 -34.904572 6.891733 -32.026538 2.625133 19.981609 125.089806 -4.337588 -7.959291 50.319991 -3.062228 -19.824627 0.000000 0.000000 0.000000 7.523213 27.801242 -4.815053 -25.083907 3.093744 -17.927783 114.994226 8.237344 -0.277766 36.175632 10.527241 22.307212 0.000000 0.000000 0.000000 17.991958 12.788765 -0.702401 25.628000 -8.342528 7.134671 27.186735 2.944825 -3.588383 16.401287 0.982763 -2.914073 0.000000 0.000000 0.000000 15.071121 1.285911 -1.289498 4.525311 -1.321881 0.877644 0.000000 0.000000 0.000000 17.860605 0.131431 -2.708165 2.833041 -26.184328 -6.631859 -43.350244 -36.317933 -50.180724 -31.620470 -87.328627 -28.487496 0.000000 0.000000 0.000000 16.468761 3.233710 -2.322104 5.123170 6.889681 -7.878632 -26.298325 30.993404 33.925696 -10.517757 64.271001 11.218120 0.000000 0.000000 0.000000 
1.225323 38.301701 -19.952911 0.000000 0.000000 0.000000 13.203176 -34.562021 6.713612 -32.433590 2.612960 19.979019 125.172205 -4.486896 -7.807837 50.442470 -3.347598 -19.830785 0.000000 0.000000 0.000000 7.152093 27.451700 -4.513894 -25.378485 3.014723 -17.705776 115.467367 8.301318 -0.221792 36.461046 10.605519 22.478871 0.000000 0.000000 0.000000 17.775364 12.321915 -0.601526 24.595646 -9.442999 6.844530 27.487526 2.620604 -3.775925 16.599726 0.783148 -3.039135 0.000000 0.000000 0.000000 15.303315 1.191958 -1.361226 4.577599 -1.327015 0.849317 0.000000 0.000000 0.000000 18.181171 0.105638 -2.954272 2.616871 -25.407826 -8.093457 -42.560227 -36.816393 -50.687971 -34.706595 -87.863014 -31.761011 0.000000 0.000000 0.000000 16.761325 3.111286 -2.390545 5.094526 6.474439 -8.107107 -26.295894 30.817076 34.617540 -11.269498 65.552590 12.056248 0.000000 0.000000 0.000000 
